nColumns=19
nRows=25
DataType=double
version=3
OpenSimVersion=4.5.2-2025-05-03-6a4c6ec41
endheader
time	force3_vx	force3_vy	force3_vz	force3_px	force3_py	force3_pz	moment3_x	moment3_y	moment3_z	force4_vx	force4_vy	force4_vz	force4_px	force4_py	force4_pz	moment4_x	moment4_y	moment4_z
3.543	-0.0005415986631089243	-0.004514521496338978	-0.003007345199794413	0.03822254790144275	-0.002999999027921464	-0.0009305651016403365	-3.073792269722098e-09	0.02046671672918507	1.2569932527216e-18	9.532810168760227e-05	0.00611362153453524	-0.00381330623100957	0.09211156647203342	-0.003000000471344395	0.002687765686188372	4.665543572140341e-09	-0.03106532405576599	-1.293115622947131e-19
3.544	-0.0005612649045874151	-0.004149489014517845	-0.002847558862837752	0.03802052573925571	-0.002999999058261898	-0.001221978491734182	-3.523358353722792e-09	0.02346013361705054	1.188459873698019e-18	0.000140067317140706	0.006385797623082306	-0.003957157957146061	0.09218896314305323	-0.003000000459720774	-0.001483247908475445	1.352632428238611e-08	-0.09006445672030501	-3.419043808397044e-20
3.545	-0.0005430473570747185	-0.003817386538872605	-0.002612321171216101	0.03755915637034558	-0.00299999912755235	-0.001684760765684132	-4.345777424421791e-09	0.02893617645702048	1.11797654763367e-18	0.0002175056088279768	0.006391931897313683	-0.003982264336082163	0.09190896970392787	-0.003000000501771849	-0.00551421289017658	2.140917628373285e-08	-0.1425520925403153	3.359734062890149e-20
3.546	-0.0005025644319659755	-0.003546640976743036	-0.002304822583841145	0.03697886202754869	-0.002999999214703558	-0.00226282003292608	-5.366144788963827e-09	0.03573024969779524	1.043205113413146e-18	0.0002641251263616161	0.006151368539499471	-0.003880609485781227	0.09100856054494851	-0.00300000063700007	-0.00899575412871698	2.732305616568303e-08	-0.1819294109872222	7.85317613032199e-20
3.547	-0.0004570656612437337	-0.0033178091803376	-0.00192884844151462	0.03637611603646897	-0.002999999305226723	-0.002902830508191934	-6.343901263965519e-09	0.04224060012037174	9.551380959596667e-19	0.0002468981279083476	0.005770694813099777	-0.003694871170590112	0.08928861290251602	-0.003000000895310635	-0.01154642837960154	3.051653467402904e-08	-0.2031930522324581	1.048569597062421e-19
3.548	-0.0004120236936424532	-0.003103434969053135	-0.001486802376621614	0.03578070306759139	-0.00299999939464867	-0.003563548084673573	-7.074652515428825e-09	0.04710627663643698	8.426866048653599e-19	0.0001670337765229408	0.005347839564091375	-0.003484524363628859	0.0866361708032906	-0.003000001293667786	-0.01287274094897087	3.049550082225982e-08	-0.2030529992226002	1.160752440090912e-19
3.549	-0.0003676387377293292	-0.002891730177532208	-0.000993168723717781	0.03516425787727128	-0.002999999487229452	-0.004209940694032844	-7.459553591948725e-09	0.04966912428857584	7.008961791869197e-19	3.354578918801903e-05	0.00492329600490985	-0.00329017924220226	0.08300370006405101	-0.003000001839210404	-0.01285248602177687	2.710693203473782e-08	-0.1804903576258819	1.147664553585838e-19
3.55	-0.000336847333799862	-0.002690713751885147	-0.0004760534214220562	0.03447781585197434	-0.002999999590322822	-0.004793572575629564	-7.528050561164197e-09	0.05012520848142955	5.362379702223152e-19	-0.0001616575061029122	0.004498368963202667	-0.003122391218976267	0.07841326748843669	-0.003000002528624359	-0.01157625693613452	2.063686359796356e-08	-0.137409681269614	1.026574970993212e-19
3.551	-0.000345107693160033	-0.002522857645190311	3.80792360914487e-05	0.03370092371452401	-0.002999999707000542	-0.005272822690708766	-7.385335157719382e-09	0.04917494396205205	3.625083274242143e-19	-0.0004316733750926879	0.00406321051195894	-0.002968758031814329	0.07304254853575051	-0.003000003335225457	-0.009294019470132177	1.176331801892734e-08	-0.07832555426861776	8.084816797018831e-20
3.552	-0.0004060155979452101	-0.002412850730123932	0.000523679288549136	0.03284017305059831	-0.002999999836272628	-0.005645856216620967	-7.161499857131488e-09	0.0476845460147519	1.940152451050752e-19	-0.0007685669000789961	0.00360486843883559	-0.00280893702009252	0.06730653364821264	-0.003000004196688386	-0.006337903499722316	1.446825443986754e-09	-0.009633625876193127	5.009603367879355e-20
3.553	-0.000515510280052202	-0.002376603829790707	0.0009441877120851209	0.03191297566985607	-0.002999999975524049	-0.005935914519034719	-7.004859748758737e-09	0.04664156443273898	4.276430892358753e-20	-0.001133523348748609	0.003121903713670788	-0.002634409519545555	0.06187970166582161	-0.0030000050117166	-0.003081819568690099	-9.12733461181274e-09	0.0607739705123389	1.107588981943813e-20
3.554	-0.0006655355353802771	-0.002420807297180946	0.001265453864345285	0.03095964880857213	-0.003000000118699715	-0.00616511898148043	-7.075340060236889e-09	0.04711085462731888	-8.23414648203929e-20	-0.001472731409530686	0.002629272938772976	-0.00244916370203566	0.05771514739981828	-0.003000005637169645	7.708827300279344e-05	-1.864069247835006e-08	0.1241182605013931	-3.544330929838876e-20
3.555	-0.0008386400232581432	-0.002540057973233495	0.001482630663186783	0.03004215625350716	-0.00300000025649355	-0.00636664987189214	-7.490097924720768e-09	0.04987250244896591	-1.762517880631307e-19	-0.001739621939380494	0.002130902908545044	-0.002251776243578571	0.05587028471930074	-0.003000005914239923	0.002742202515548774	-2.58637009217874e-08	0.1722123559671099	-8.852364381046383e-20
3.556	-0.000993282910140007	-0.002706170937057233	0.001617188504252496	0.0292125919857222	-0.003000000381081783	-0.006588922786132341	-8.239159588923962e-09	0.05486009808030059	-2.382575249118296e-19	-0.001909538714859885	0.00161269749347167	-0.002034681992988853	0.05690072579057968	-0.003000005759482898	0.004572214557006504	-2.998498740164853e-08	0.1996537672508158	-1.470636925182963e-19
3.557	-0.001071172554388429	-0.002864498319755137	0.001690616469807111	0.02850039227604136	-0.003000000488043496	-0.00686157537702279	-9.162543304448859e-09	0.06100840976885354	-2.720450442919531e-19	-0.001989307626124703	0.00107917024560185	-0.001798183843579416	0.06043558504162785	-0.003000005228600033	0.005348537217209813	-3.080140657520222e-08	0.2050898597012328	-2.098245026692012e-19
3.558	-0.001031352386271483	-0.002945212624211027	0.001718456598531361	0.02794568392346288	-0.00300000057135224	-0.007173638288828593	-1.003035879484779e-08	0.06678672276431394	-2.852075191233039e-19	-0.002016483415274099	0.0005799068787173912	-0.001552940744160699	0.065578432977917	-0.00300000445622156	0.005020328477163452	-2.857812674523639e-08	0.1902862452193166	-2.753893177747359e-19
3.559	-0.0008750330857530413	-0.002890009926397006	0.001720641688395638	0.02762043628519043	-0.003000000620199308	-0.007488296012274652	-1.064709828774057e-08	0.07089325677565433	-2.881804533408644e-19	-0.002052821866729665	0.0001775612514019495	-0.001313926118838098	0.07152247245396227	-0.00300000356351628	0.003723849384894375	-2.384321468232444e-08	0.1587590340069185	-3.419605121072704e-19
3.56	-0.0006311984553955928	-0.002685849141856252	0.001719332930351772	0.02758572557000569	-0.003000000625411999	-0.007782763459963367	-1.090479163147831e-08	0.07260909708290861	-2.926465330789174e-19	-0.002165519218870057	-0.0001294913938027149	-0.001089262154937052	0.07769551899870249	-0.003000002636417689	0.001743402584043278	-1.738861635326665e-08	0.1157813647055297	-4.069086677144047e-19
3.561	-0.0003310686049856528	-0.002381234617682384	0.001730029631922252	0.02784116274778012	-0.003000000587048783	-0.008078251712264161	-1.079113608919565e-08	0.07185232642939846	-3.095241771729761e-19	-0.002395654863261176	-0.0004498083829664786	-0.0008629920892209528	0.08364811102845197	-0.003000001742428145	-0.0005806118804621151	-1.029574724346161e-08	0.06855379647276287	-4.660228504020759e-19
3.562	-1.5114075284124e-06	-0.002058047549552981	0.001761610881158307	0.02832530546918263	-0.003000000514337426	-0.008413444766893268	-1.034799228861914e-08	0.06890167204667737	-3.467074490438299e-19	-0.002742310774359276	-0.0009419547886337594	-0.0005982657877686894	0.08900828128043511	-0.003000000937411511	-0.002913262049159265	-3.742347097036077e-09	0.02491825945887164	-5.124662559101193e-19
3.563	0.0003325613147965979	-0.001773642276256819	0.001822916103929764	0.02895077496177954	-0.003000000420400959	-0.008784597479546056	-9.581941130766844e-09	0.06380095258768879	-4.067584192528817e-19	-0.003165701281486619	-0.001703899294878842	-0.0002687500085288715	0.09349844322734022	-0.00300000026305708	-0.004946900008218168	1.297874479135325e-09	-0.008641842203848074	-5.355131153727767e-19
3.564	0.0006566434303937466	-0.001521522045427309	0.001918964156483351	0.02964057624801697	-0.003000000316802916	-0.009133384801918561	-8.398161113135751e-09	0.05591880306033196	-4.847667685236521e-19	-0.003592388088078036	-0.002714704954878123	0.0001190648372260218	0.09693098887258682	-0.002999999747540716	-0.006437893433311567	4.242549866706956e-09	-0.02824883842074649	-5.192245292285961e-19
3.565	0.0009712961100831223	-0.001241982431862554	0.002036203613054826	0.03035047287297906	-0.003000000210186985	-0.009395481624260772	-6.628941887885692e-09	0.04413853115708994	-5.665893274198464e-19	-0.003929010215079588	-0.003866487589509224	0.0005361592061411204	0.09920184748525308	-0.00299999940649224	-0.007244797609182865	4.900818809479427e-09	-0.03263189426801724	-4.413048836152259e-19
3.566	0.001266264314748505	-0.000875381675653853	0.00214291498425771	0.03108682866650907	-0.003000000099597436	-0.009529723247527442	-4.156815912265277e-09	0.0276779841780133	-6.320351058949263e-19	-0.004096224636992658	-0.005030911172348863	0.0009560743387375938	0.1003240350443348	-0.002999999237956817	-0.007312183073260525	3.312954784040716e-09	-0.02205916898142765	-2.768222172100722e-19
3.567	0.00149965153246945	-0.0004027186298574605	0.002215174626886235	0.03191542159215442	-0.002999999975155415	-0.009512308673452935	-1.011898417709989e-09	0.006737683126783496	-6.675281432890424e-19	-0.004054172572097925	-0.006100731927421381	0.001366222773737381	0.1004419029376424	-0.002999999220255016	-0.006635654570773423	-3.481173847291521e-10	0.002317924825100339	-1.151772348055695e-20
